<?xml version="1.0" standalone="no"?>
<!DOCTYPE svg PUBLIC "-//W3C//DTD SVG 20010904//EN"
 "http://www.w3.org/TR/2001/REC-SVG-20010904/DTD/svg10.dtd">
<svg version="1.0" xmlns="http://www.w3.org/2000/svg"
 width="30.000000pt" height="30.000000pt" viewBox="0 0 512.000000 512.000000"
 preserveAspectRatio="xMidYMid meet">

<g transform="translate(0.000000,512.000000) scale(0.100000,-0.100000)"
fill="#ffffff" stroke="none">
<path d="M2880 5103 c-53 -26 -179 -157 -243 -253 -30 -47 -71 -122 -90 -166
-96 -225 -137 -561 -103 -859 10 -82 19 -152 21 -154 2 -2 40 29 83 69 l79 72
6 87 c15 234 115 518 221 627 47 48 57 54 94 54 32 0 49 -7 74 -29 l33 -29 -1
-104 c-1 -150 -42 -270 -147 -432 -84 -128 -157 -206 -299 -321 -280 -225
-589 -533 -718 -714 -106 -148 -183 -309 -222 -468 -29 -117 -31 -338 -5 -463
56 -263 235 -549 438 -697 146 -107 283 -153 483 -160 l139 -6 -7 79 c-11 122
-3 114 -110 114 -50 0 -119 7 -151 15 -123 32 -263 114 -352 207 -209 218
-233 468 -77 794 102 214 262 395 570 644 264 214 388 361 499 593 90 187 138
357 165 586 14 118 9 218 -21 400 -58 350 -162 532 -304 531 -11 0 -36 -8 -55
-17z"/>
<path d="M2651 2949 l-84 -61 7 -67 c4 -36 9 -87 12 -112 l6 -47 -59 -31
c-167 -89 -302 -259 -348 -436 -17 -68 -20 -197 -5 -276 17 -92 85 -216 156
-285 35 -34 80 -69 101 -79 74 -36 173 -29 173 11 0 9 -27 56 -59 105 -67 100
-87 164 -77 244 7 63 24 106 65 162 37 51 109 102 120 85 4 -6 33 -217 65
-469 32 -252 69 -523 82 -603 69 -405 69 -547 3 -695 -26 -59 -121 -157 -168
-173 l-33 -12 27 35 c14 20 38 61 53 93 24 50 27 69 27 157 0 92 -3 106 -32
167 -70 148 -213 238 -379 238 -52 0 -150 -31 -202 -64 -55 -34 -121 -110
-148 -171 -121 -264 37 -544 362 -641 93 -28 259 -26 352 5 151 49 277 152
338 277 66 132 67 330 4 744 -16 107 -57 398 -90 645 -33 248 -63 460 -65 473
-8 32 27 29 91 -8 103 -58 164 -164 164 -283 0 -108 -32 -243 -79 -336 l-22
-41 21 -125 c11 -69 20 -128 20 -131 0 -9 95 49 150 93 117 93 210 239 252
393 30 112 32 318 4 425 -56 214 -194 398 -361 481 -75 37 -182 64 -256 64
-28 0 -49 5 -52 13 -2 6 -12 76 -22 155 -10 78 -21 142 -25 142 -3 0 -43 -28
-89 -61z"/>
</g>
</svg>
